<svg width="0" height="0" class="hidden">
	<symbol xmlns="http://www.w3.org/2000/svg" viewBox="0 0 24 24" id="mingcute--left-line">
		<g fill="none" fill-rule="evenodd">
			<path d="M24 0v24H0V0zM12.593 23.258l-.011.002l-.071.035l-.02.004l-.014-.004l-.071-.035q-.016-.005-.024.005l-.004.01l-.017.428l.005.02l.01.013l.104.074l.015.004l.012-.004l.104-.074l.012-.016l.004-.017l-.017-.427q-.004-.016-.017-.018m.265-.113l-.013.002l-.185.093l-.01.01l-.003.011l.018.43l.005.012l.008.007l.201.093q.019.005.029-.008l.004-.014l-.034-.614q-.005-.019-.02-.022m-.715.002a.02.02 0 0 0-.027.006l-.006.014l-.034.614q.001.018.017.024l.015-.002l.201-.093l.01-.008l.004-.011l.017-.43l-.003-.012l-.01-.01z">
			</path>
			<path fill="currentColor" d="M8.293 12.707a1 1 0 0 1 0-1.414l5.657-5.657a1 1 0 1 1 1.414 1.414L10.414 12l4.95 4.95a1 1 0 0 1-1.414 1.414z">
			</path>
		</g>
	</symbol>
	<symbol xmlns="http://www.w3.org/2000/svg" viewBox="0 0 24 24" id="mingcute--right-line">
		<g fill="none" fill-rule="evenodd">
			<path d="M24 0v24H0V0zM12.593 23.258l-.011.002l-.071.035l-.02.004l-.014-.004l-.071-.035q-.016-.005-.024.005l-.004.01l-.017.428l.005.02l.01.013l.104.074l.015.004l.012-.004l.104-.074l.012-.016l.004-.017l-.017-.427q-.004-.016-.017-.018m.265-.113l-.013.002l-.185.093l-.01.01l-.003.011l.018.43l.005.012l.008.007l.201.093q.019.005.029-.008l.004-.014l-.034-.614q-.005-.019-.02-.022m-.715.002a.02.02 0 0 0-.027.006l-.006.014l-.034.614q.001.018.017.024l.015-.002l.201-.093l.01-.008l.004-.011l.017-.43l-.003-.012l-.01-.01z">
			</path>
			<path fill="currentColor" d="M15.707 11.293a1 1 0 0 1 0 1.414l-5.657 5.657a1 1 0 1 1-1.414-1.414l4.95-4.95l-4.95-4.95a1 1 0 0 1 1.414-1.414z">
			</path>
		</g>
	</symbol>
	<symbol xmlns="http://www.w3.org/2000/svg" viewBox="0 0 100 100" id="foundation--telephone">
		<path fill="currentColor" d="M84.96 70.237c-.167-1.032-.814-1.914-1.783-2.438l-14.335-8.446l-.118-.066a4.26 4.26 0 0 0-1.937-.45c-1.201 0-2.348.455-3.144 1.253l-4.231 4.233c-.181.172-.771.421-.95.43c-.049-.004-4.923-.355-13.896-9.329c-8.957-8.955-9.337-13.844-9.34-13.844c.005-.25.251-.838.426-1.02l3.608-3.607c1.271-1.274 1.652-3.386.898-5.022L32.19 16.938c-.579-1.192-1.704-1.928-2.952-1.928c-.883 0-1.735.366-2.401 1.031l-9.835 9.813c-.943.938-1.755 2.578-1.932 3.898c-.086.631-1.831 15.693 18.819 36.346C51.42 83.627 65.09 84.989 68.865 84.989a11 11 0 0 0 1.376-.071c1.316-.176 2.954-.986 3.891-1.925l9.827-9.826c.802-.806 1.168-1.871 1.001-2.93">
		</path>
	</symbol>
	<symbol xmlns="http://www.w3.org/2000/svg" viewBox="0 0 32 32" id="la--telegram-plane">
		<path fill="currentColor" d="M26.07 3.996a3 3 0 0 0-.933.223h-.004c-.285.113-1.64.683-3.7 1.547l-7.382 3.109c-5.297 2.23-10.504 4.426-10.504 4.426l.062-.024s-.359.118-.734.375a2 2 0 0 0-.586.567c-.184.27-.332.683-.277 1.11c.09.722.558 1.155.894 1.394c.34.242.664.355.664.355h.008l4.883 1.645c.219.703 1.488 4.875 1.793 5.836c.18.574.355.933.574 1.207q.157.21.379.351a1 1 0 0 0 .246.106l-.05-.012c.015.004.027.016.038.02c.04.011.067.015.118.023c.773.234 1.394-.246 1.394-.246l.035-.028l2.883-2.625l4.832 3.707l.11.047c1.007.442 2.027.196 2.566-.238c.543-.437.754-.996.754-.996l.035-.09l3.734-19.129c.106-.472.133-.914.016-1.343a1.8 1.8 0 0 0-.781-1.047a1.87 1.87 0 0 0-1.067-.27m-.101 2.05c-.004.063.008.056-.02.177v.011l-3.699 18.93c-.016.027-.043.086-.117.145c-.078.062-.14.101-.465-.028l-5.91-4.531l-3.57 3.254l.75-4.79l9.656-9c.398-.37.265-.448.265-.448c.028-.454-.601-.133-.601-.133l-12.176 7.543l-.004-.02l-5.836-1.965v-.004l-.015-.003l.03-.012l.032-.016l.031-.011s5.211-2.196 10.508-4.426c2.652-1.117 5.324-2.242 7.379-3.11a807 807 0 0 1 3.66-1.53c.082-.032.043-.032.102-.032z">
		</path>
	</symbol>
	<symbol xmlns="http://www.w3.org/2000/svg" viewBox="0 0 20 20" id="entypo-social--instagram">
		<path fill="currentColor" d="M17 1H3c-1.1 0-2 .9-2 2v14c0 1.101.9 2 2 2h14c1.1 0 2-.899 2-2V3c0-1.1-.9-2-2-2M9.984 15.523a5.54 5.54 0 0 0 5.538-5.539c0-.338-.043-.664-.103-.984H17v7.216a.69.69 0 0 1-.693.69H3.693a.69.69 0 0 1-.693-.69V9h1.549c-.061.32-.104.646-.104.984a5.54 5.54 0 0 0 5.539 5.539M6.523 9.984a3.461 3.461 0 1 1 6.922 0a3.461 3.461 0 0 1-6.922 0M16.307 6h-1.615A.694.694 0 0 1 14 5.308V3.691c0-.382.31-.691.691-.691h1.615c.384 0 .694.309.694.691v1.616c0 .381-.31.693-.693.693">
		</path>
	</symbol>
	<symbol xmlns="http://www.w3.org/2000/svg" viewBox="0 0 24 24" id="ri--behance-fill">
		<path fill="currentColor" d="M7.443 5.35c.639 0 1.23.05 1.77.198c.541.099.984.297 1.377.544q.591.371.885 1.039c.197.445.296.99.296 1.583c0 .693-.148 1.286-.492 1.731c-.295.446-.787.841-1.377 1.138c.836.248 1.475.693 1.869 1.286s.639 1.336.639 2.177c0 .693-.148 1.286-.394 1.781c-.245.495-.639.94-1.082 1.237a5.1 5.1 0 0 1-1.573.692c-.59.149-1.18.248-1.77.248H1V5.35zm-.394 5.54c.541 0 .984-.148 1.328-.395s.492-.693.492-1.237c0-.297-.05-.594-.148-.791s-.246-.347-.442-.495a2.4 2.4 0 0 0-.64-.247c-.246-.05-.491-.05-.787-.05H4v3.216zm.148 5.838c.295 0 .59-.05.836-.099c.246-.05.492-.148.688-.297a1.8 1.8 0 0 0 .492-.544c.098-.247.197-.544.197-.89c0-.693-.197-1.188-.59-1.534c-.394-.297-.935-.445-1.574-.445H4v3.81zm9.492-.05q.59.594 1.77.594c.541 0 1.033-.148 1.426-.395q.591-.446.738-.891h2.41c-.394 1.187-.984 2.028-1.77 2.572c-.788.495-1.722.792-2.853.792a5.8 5.8 0 0 1-2.115-.396a3.9 3.9 0 0 1-1.574-1.088a3.9 3.9 0 0 1-.983-1.633c-.246-.643-.345-1.335-.345-2.127c0-.742.099-1.434.345-2.078a5.3 5.3 0 0 1 1.033-1.682c.442-.445.983-.84 1.573-1.088a5.5 5.5 0 0 1 2.066-.396c.836 0 1.574.149 2.213.495c.64.346 1.131.742 1.524 1.336c.394.544.69 1.187.886 1.88c.098.692.147 1.385.098 2.176H16c0 .792.295 1.534.689 1.93m3.098-5.194c-.344-.346-.885-.544-1.525-.544a2.34 2.34 0 0 0-1.082.247c-.295.149-.491.347-.688.545a1.3 1.3 0 0 0-.344.692c-.05.248-.099.445-.099.643h4.426c-.098-.742-.344-1.236-.688-1.583M15.459 6.29h5.508v1.336H15.46z">
		</path>
	</symbol>
	<symbol xmlns="http://www.w3.org/2000/svg" viewBox="0 0 24 24" id="mdi--twitter">
		<path fill="currentColor" d="M22.46 6c-.77.35-1.6.58-2.46.69c.88-.53 1.56-1.37 1.88-2.38c-.83.5-1.75.85-2.72 1.05C18.37 4.5 17.26 4 16 4c-2.35 0-4.27 1.92-4.27 4.29c0 .34.04.67.11.98C8.28 9.09 5.11 7.38 3 4.79c-.37.63-.58 1.37-.58 2.15c0 1.49.75 2.81 1.91 3.56c-.71 0-1.37-.2-1.95-.5v.03c0 2.08 1.48 3.82 3.44 4.21a4.2 4.2 0 0 1-1.93.07a4.28 4.28 0 0 0 4 2.98a8.52 8.52 0 0 1-5.33 1.84q-.51 0-1.02-.06C3.44 20.29 5.7 21 8.12 21C16 21 20.33 14.46 20.33 8.79c0-.19 0-.37-.01-.56c.84-.6 1.56-1.36 2.14-2.23">
		</path>
	</symbol>
	<symbol xmlns="http://www.w3.org/2000/svg" viewBox="0 0 24 24" id="ri--facebook-fill">
		<path fill="currentColor" d="M14 13.5h2.5l1-4H14v-2c0-1.03 0-2 2-2h1.5V2.14c-.326-.043-1.557-.14-2.857-.14C11.928 2 10 3.657 10 6.7v2.8H7v4h3V22h4z">
		</path>
	</symbol>
	<symbol xmlns="http://www.w3.org/2000/svg" viewBox="0 0 24 24" id="tabler--mail-filled">
		<g fill="currentColor">
			<path d="M22 7.535V17a3 3 0 0 1-2.824 2.995L19 20H5a3 3 0 0 1-2.995-2.824L2 17V7.535l9.445 6.297l.116.066a1 1 0 0 0 .878 0l.116-.066z">
			</path>
			<path d="M19 4c1.08 0 2.027.57 2.555 1.427L12 11.797l-9.555-6.37a3 3 0 0 1 2.354-1.42L5 4z">
			</path>
		</g>
	</symbol>
</svg>
